<svg width="32" height="35" fill="none" xmlns="http://www.w3.org/2000/svg"><path d="M10.67 15.02H7.782c-.264 0-.478.234-.478.523v3.155c0 .289.214.523.478.523h2.886c.264 0 .478-.234.478-.523v-3.155c0-.289-.214-.523-.478-.523zm-.48 3.155H8.262v-2.109h1.93v2.109zm7.211-3.155h-2.887c-.264 0-.478.234-.478.523v3.155c0 .289.214.523.478.523h2.887c.264 0 .478-.234.478-.523v-3.155c0-.289-.214-.523-.478-.523zm-.478 3.155h-1.93v-2.109h1.93v2.109zm-6.253 4.034H7.782c-.264 0-.478.234-.478.523v3.156c0 .29.214.524.478.524h2.886c.264 0 .478-.235.478-.524v-3.156c0-.29-.214-.523-.478-.523zm-.48 3.156H8.262v-2.11h1.93v2.11zm7.211-3.156h-2.887c-.264 0-.478.234-.478.523v3.156c0 .29.214.524.478.524h2.887c.264 0 .478-.235.478-.524v-3.156c0-.29-.214-.523-.478-.523zm-.478 3.156h-1.93v-2.11h1.93v2.11zm7-3.156h-2.885c-.264 0-.478.234-.478.523v3.156c0 .29.214.524.478.524h2.885c.265 0 .479-.235.479-.524v-3.156c0-.29-.215-.523-.479-.523zm-.478 3.156h-1.928v-2.11h1.928v2.11z" fill="#BC90BA"/><path d="M27.436 5.626H24.53V5.02c0-1.078-.802-1.955-1.787-1.955-.985 0-1.787.877-1.787 1.955v.606h-3.23V5.02c0-1.078-.802-1.955-1.786-1.955-.986 0-1.788.877-1.788 1.955v.606h-3.23V5.02c0-1.078-.801-1.955-1.786-1.955-.986 0-1.788.877-1.788 1.955v.606H4.452c-.264 0-.478.234-.478.523v25.14c0 .288.214.523.478.523h22.984c.265 0 .479-.235.479-.523V6.149c0-.289-.215-.523-.48-.523zm-5.522-.606c0-.501.372-.908.83-.908.457 0 .83.407.83.908v2.677c0 .5-.373.908-.83.908-.458 0-.83-.407-.83-.908V5.02zm-5.974-.91c.458 0 .83.408.83.908v2.678c0 .5-.372.908-.83.908-.458 0-.831-.408-.831-.908v-1.49c.002-.02.005-.038.005-.058 0-.02-.003-.038-.005-.057V5.019c0-.5.373-.908.831-.908zm-7.635.909c0-.501.373-.908.832-.908.457 0 .829.407.829.908v2.677c0 .5-.372.908-.83.908-.458 0-.83-.407-.83-.908V5.02zm18.652 25.745H4.93V6.672h2.418v1.025c0 1.077.803 1.954 1.788 1.954s1.786-.877 1.786-1.954V6.672h3.23v1.025c0 1.077.802 1.954 1.788 1.954.985 0 1.786-.877 1.786-1.954V6.672h3.23v1.025c0 1.077.803 1.954 1.788 1.954s1.786-.877 1.786-1.954V6.672h2.427v24.093z" fill="#BC90BA"/><path d="M24.452 13.508l-2.44 3.29-1.019-1.063a.45.45 0 00-.676.017.559.559 0 00.015.74l1.394 1.454a.458.458 0 00.36.144.466.466 0 00.341-.193l2.768-3.73a.557.557 0 00-.07-.736.45.45 0 00-.673.077z" fill="#BC90BA"/></svg>