<svg width="50" height="51" fill="none" xmlns="http://www.w3.org/2000/svg"><g clip-path="url(#clip0_10_719)"><path d="M43.546 12.574h-6.092c0-3.335-1.284-6.533-3.568-8.891C31.6 1.325 28.502 0 25.27 0c-3.232 0-6.33 1.325-8.615 3.683-2.285 2.358-3.568 5.556-3.568 8.891H6.996a5.997 5.997 0 00-4.308 1.841 6.391 6.391 0 00-1.784 4.446v20.957c.003 2.778 1.074 5.441 2.977 7.406 1.904 1.964 4.484 3.07 7.176 3.072h28.427c2.692-.003 5.273-1.108 7.176-3.072 1.903-1.965 2.974-4.628 2.977-7.406V18.861a6.391 6.391 0 00-1.784-4.446 5.997 5.997 0 00-4.307-1.84zM25.27 4.191c2.154 0 4.22.884 5.743 2.456a8.52 8.52 0 012.379 5.927H17.148c0-2.223.856-4.355 2.38-5.927A7.996 7.996 0 0125.27 4.19zm20.305 35.627a6.39 6.39 0 01-1.784 4.446 5.997 5.997 0 01-4.308 1.841H11.057a5.997 5.997 0 01-4.308-1.841 6.39 6.39 0 01-1.784-4.446V18.861c0-.556.214-1.089.595-1.482a2 2 0 011.436-.614h6.091v4.192c0 .556.214 1.089.595 1.482a2 2 0 001.436.613 2 2 0 001.436-.613 2.13 2.13 0 00.595-1.482v-4.192h16.244v4.192c0 .556.214 1.089.595 1.482a2 2 0 001.435.613c.539 0 1.055-.22 1.436-.613a2.13 2.13 0 00.595-1.482v-4.192h6.092a2 2 0 011.435.614c.381.393.595.926.595 1.482v20.957z" fill="#EED102"/></g><defs><clipPath id="clip0_10_719"><path fill="#fff" transform="translate(.904)" d="M0 0h48.733v50.296H0z"/></clipPath></defs></svg>