<svg width="49" height="48" fill="none" xmlns="http://www.w3.org/2000/svg"><path fill-rule="evenodd" clip-rule="evenodd" d="M24.802 0c-13.255 0-24 10.745-24 24s10.745 24 24 24 24-10.745 24-24-10.745-24-24-24zm-5.277 11.277c1.366-.062 1.802-.077 5.278-.077H24.8c3.477 0 3.912.015 5.277.077 1.363.063 2.294.279 3.11.595a6.256 6.256 0 012.267 1.476 6.281 6.281 0 011.477 2.268c.315.813.53 1.744.595 3.106.06 1.366.077 1.802.077 5.278 0 3.476-.016 3.912-.077 5.277-.064 1.362-.28 2.293-.595 3.107a6.283 6.283 0 01-1.477 2.267 6.263 6.263 0 01-2.266 1.477c-.815.317-1.746.532-3.109.595-1.365.062-1.8.077-5.276.077s-3.912-.015-5.278-.077c-1.362-.063-2.293-.278-3.107-.595a6.268 6.268 0 01-2.267-1.477 6.271 6.271 0 01-1.476-2.268c-.316-.814-.532-1.744-.595-3.106-.062-1.366-.077-1.8-.077-5.277 0-3.476.016-3.913.077-5.278.061-1.362.277-2.293.595-3.107a6.284 6.284 0 011.477-2.267 6.268 6.268 0 012.268-1.476c.813-.316 1.744-.532 3.106-.595z" fill="#D7DAD6"/><path fill-rule="evenodd" clip-rule="evenodd" d="M23.655 13.508h1.148c3.418 0 3.823.012 5.172.073 1.248.058 1.926.266 2.377.441a3.96 3.96 0 011.471.957c.448.449.725.875.958 1.472.175.451.384 1.128.44 2.376.062 1.35.075 1.755.075 5.17 0 3.416-.013 3.822-.074 5.171-.057 1.248-.266 1.925-.441 2.376a3.957 3.957 0 01-.958 1.47 3.959 3.959 0 01-1.471.957c-.45.177-1.128.385-2.376.442-1.35.06-1.755.074-5.173.074s-3.823-.013-5.172-.075c-1.248-.057-1.925-.266-2.377-.44a3.965 3.965 0 01-1.472-.958 3.968 3.968 0 01-.958-1.471c-.175-.45-.384-1.128-.44-2.376-.062-1.35-.074-1.755-.074-5.173s.012-3.82.073-5.17c.057-1.248.266-1.925.441-2.376a3.96 3.96 0 01.958-1.472 3.973 3.973 0 011.472-.958c.451-.176 1.129-.384 2.377-.441 1.18-.054 1.638-.07 4.024-.072v.003zm7.98 2.125a1.536 1.536 0 100 3.073 1.536 1.536 0 000-3.073zM18.23 24.001a6.573 6.573 0 1113.146 0 6.573 6.573 0 01-13.146 0z" fill="#D7DAD6"/><path d="M24.803 19.733a4.267 4.267 0 110 8.533 4.267 4.267 0 010-8.533z" fill="#D7DAD6"/></svg>