<svg width="49" height="48" fill="none" xmlns="http://www.w3.org/2000/svg"><path fill-rule="evenodd" clip-rule="evenodd" d="M.604 24c0 13.255 10.745 24 24 24s24-10.745 24-24-10.745-24-24-24-24 10.745-24 24zm19.6 11l.408-6.118L31.74 18.839c.488-.433-.107-.645-.755-.252L17.25 27.252l-5.933-1.851c-1.28-.393-1.29-1.273.288-1.906l23.118-8.914c1.056-.48 2.075.254 1.672 1.87l-3.937 18.552c-.275 1.319-1.072 1.634-2.175 1.025l-5.997-4.431-2.883 2.803-.027.026c-.323.314-.59.574-1.173.574z" fill="#EED102"/></svg>