<svg width="129" height="129" fill="none" xmlns="http://www.w3.org/2000/svg"><path d="M64.474 11.623c17.226 0 19.248.076 26.056.384 6.297.281 9.701 1.33 11.979 2.227 3.02 1.177 5.17 2.56 7.423 4.813 2.252 2.252 3.66 4.403 4.811 7.424.871 2.278 1.946 5.683 2.227 11.98.307 6.81.384 8.833.384 26.062s-.077 19.251-.384 26.06c-.281 6.299-1.331 9.703-2.227 11.982-1.177 3.021-2.559 5.171-4.811 7.424-2.253 2.253-4.403 3.661-7.423 4.813-2.278.87-5.682 1.945-11.979 2.227-6.808.307-8.83.384-26.056.384-17.225 0-19.247-.077-26.056-.384-6.296-.282-9.7-1.331-11.978-2.227-3.02-1.178-5.17-2.56-7.423-4.813-2.252-2.253-3.66-4.403-4.812-7.424-.87-2.279-1.945-5.683-2.226-11.981-.308-6.81-.384-8.832-.384-26.061 0-17.23.076-19.252.384-26.061.281-6.298 1.33-9.703 2.226-11.981 1.178-3.021 2.56-5.172 4.812-7.424 2.253-2.253 4.403-3.661 7.423-4.813 2.278-.87 5.682-1.946 11.979-2.227 6.808-.333 8.83-.384 26.055-.384zm0-11.623C46.967 0 44.766.077 37.881.384c-6.86.307-11.544 1.408-15.639 2.995-4.248 1.639-7.832 3.866-11.415 7.45-3.584 3.584-5.785 7.194-7.448 11.418C1.792 26.343.69 31.027.384 37.914.077 44.775 0 46.977 0 64.487 0 81.997.077 84.2.384 91.086c.307 6.86 1.408 11.546 2.995 15.667 1.638 4.25 3.864 7.834 7.448 11.418 3.583 3.584 7.192 5.786 11.415 7.45 4.095 1.587 8.78 2.688 15.665 2.995 6.885.307 9.06.384 26.593.384s19.708-.077 26.594-.384c6.859-.307 11.543-1.408 15.664-2.995 4.249-1.639 7.832-3.866 11.415-7.45 3.584-3.584 5.785-7.194 7.448-11.418 1.587-4.096 2.688-8.78 2.995-15.667.307-6.887.384-9.063.384-26.599s-.077-19.712-.384-26.598c-.307-6.861-1.408-11.546-2.995-15.668-1.638-4.25-3.864-7.834-7.448-11.418-3.583-3.584-7.192-5.785-11.415-7.45-4.095-1.587-8.78-2.687-15.664-2.995C84.183.077 81.982 0 64.474 0z" fill="url(#paint0_linear_17_248)"/><path d="M64.474 31.36c-18.275 0-33.12 14.823-33.12 33.127 0 18.304 14.845 33.127 33.12 33.127s33.12-14.848 33.12-33.127c0-18.279-14.845-33.127-33.12-33.127zm0 54.631c-11.876 0-21.5-9.625-21.5-21.504 0-11.878 9.624-21.504 21.5-21.504s21.5 9.626 21.5 21.504c0 11.879-9.624 21.504-21.5 21.504zM98.9 37.786a7.73 7.73 0 007.73-7.731 7.73 7.73 0 10-15.46 0 7.73 7.73 0 007.73 7.731z" fill="#563256"/><defs><linearGradient id="paint0_linear_17_248" x1="63.984" y1="0" x2="64.5" y2="129" gradientUnits="userSpaceOnUse"><stop offset=".377" stop-color="#563256"/><stop offset="1" stop-color="#563256" stop-opacity=".49"/></linearGradient></defs></svg>