<svg width="71" height="70" fill="none" xmlns="http://www.w3.org/2000/svg"><g clip-path="url(#clip0_24_675)"><path d="M35.802 39.983c19.29 0 34.926-5.676 34.926-12.677 0-7.002-15.637-12.678-34.926-12.678-19.29 0-34.926 5.676-34.926 12.678 0 7.001 15.637 12.677 34.926 12.677z" fill="#FFE740"/><path d="M70.728 27.306V37.36c0 6.994-15.717 12.677-34.926 12.677C16.447 50.037.876 44.354.876 37.36V27.306c0 6.994 15.571 12.677 34.926 12.677 19.21 0 34.926-5.683 34.926-12.677z" fill="#EED102"/><path d="M70.728 37.214v10.054c0 6.995-15.717 12.678-34.926 12.678-19.355 0-34.926-5.683-34.926-12.678V37.214c0 6.994 15.571 12.677 34.926 12.677 19.21 0 34.926-5.683 34.926-12.677z" fill="#E8EAE9"/><path d="M70.728 47.268v10.055C70.728 64.317 55.011 70 35.802 70 16.447 70 .876 64.317.876 57.323V47.268c0 6.995 15.571 12.678 34.926 12.678 19.21 0 34.926-5.683 34.926-12.678zM57.485 24.391c-1.6-.582-4.074-.582-6.257-.145-.291 0-.728.145-1.164.145-.437 0-.874 0-1.31-.145-2.037-.438-4.511-.438-6.258.145-2.037.729-3.784 1.458-3.784 2.623 0 2.186 5.385 4.372 11.352 4.372 5.966 0 10.623-2.04 10.623-4.226 0-1.166-1.164-2.186-3.202-2.769z" fill="#EED102"/><path d="M49.481 13.463c-.436 0-.582-.291-.582-.583 0-.146.582-9.326 10.478-12.823.291-.146.728 0 .728.292.145.29 0 .582-.291.728-9.023 3.206-9.605 11.803-9.75 11.803 0 .437-.292.583-.583.583z" fill="#D7DAD6"/><path d="M57.049 12.006c-1.6-1.457-4.075-1.457-6.258-.583-.436.146-.727.291-1.164.291-.437 0-.873-.146-1.31-.291-2.037-1.02-4.511-1.02-6.257.437-2.038 1.748-3.348 4.371-3.348 7.14 0 5.391 4.803 9.763 10.77 9.763 5.966 0 10.768-4.372 10.768-9.763 0-2.769-1.31-5.246-3.201-6.994z" fill="#BC90BA"/><path d="M56.467 26.431c-1.892 1.458-4.366 2.332-6.986 2.332-5.966 0-10.769-4.372-10.769-9.763 0-2.186.728-4.226 2.038-5.829-.291.875-.437 1.895-.437 2.915 0 6.12 5.385 10.928 11.933 10.928 1.601 0 2.91-.145 4.22-.583z" fill="#563256"/><path d="M57.63 16.377c.583 1.457.437 2.914-.436 3.206-.873.291-2.183-.583-2.765-2.04-.582-1.457-.436-2.914.437-3.206.873-.291 2.037.583 2.765 2.04z" fill="#fff"/><path d="M26.197 27.306c-1.31-.438-3.347-.438-4.948-.146h-1.018c-.437 0-.728 0-1.02-.146-1.6-.291-3.637-.291-4.947.146-1.6.583-3.056 1.166-3.056 2.04 0 1.603 4.366 3.206 9.022 3.206 4.803 0 8.441-1.457 8.441-3.06.146-.875-.873-1.457-2.474-2.04z" fill="#EED102"/><path d="M19.794 18.126c-.29 0-.436-.292-.436-.437 0-.146.582-7.578 8.44-10.2.291-.146.582 0 .582.29.146.292 0 .438-.29.584-7.277 2.477-7.714 9.471-7.714 9.471-.145.146-.29.292-.582.292z" fill="#D7DAD6"/><path d="M25.76 16.96c-1.31-1.166-3.346-1.166-4.947-.437-.291.146-.582.146-1.019.146-.437 0-.728-.146-1.019-.146-1.6-.729-3.638-.729-4.948.437-1.6 1.457-2.62 3.497-2.62 5.683 0 4.371 3.784 7.869 8.587 7.869 4.802 0 8.586-3.498 8.586-7.87 0-2.33-1.018-4.225-2.62-5.682z" fill="#BC90BA"/><path d="M25.324 28.471c-1.455 1.166-3.493 1.895-5.676 1.895-4.802 0-8.585-3.497-8.585-7.869 0-1.748.582-3.351 1.746-4.663a6.049 6.049 0 00-.437 2.332c0 4.808 4.22 8.743 9.605 8.743 1.31.145 2.328 0 3.347-.438z" fill="#563256"/><path d="M26.343 20.603c.436 1.165.29 2.331-.437 2.623-.727.291-1.746-.438-2.183-1.603-.436-1.166-.29-2.332.437-2.623.582-.291 1.6.437 2.183 1.603z" fill="#fff"/></g><defs><clipPath id="clip0_24_675"><path fill="#fff" transform="translate(.847)" d="M0 0h69.91v70H0z"/></clipPath></defs></svg>