<svg width="142" height="130" fill="none" xmlns="http://www.w3.org/2000/svg"><path fill-rule="evenodd" clip-rule="evenodd" d="M71 0l51.588 1.573c9.115.278 16.655 7.738 17.691 17.506a308.432 308.432 0 010 65.08c-1.036 9.767-8.576 17.229-17.691 17.506l-39.176 1.195v15.67h23.05c2.938 0 5.32 2.567 5.32 5.735 0 3.167-2.382 5.735-5.32 5.735H35.538c-2.938 0-5.32-2.568-5.32-5.735 0-3.168 2.382-5.735 5.32-5.735h23.05v-15.67l-39.176-1.195c-9.115-.277-16.654-7.739-17.691-17.507a308.493 308.493 0 010-65.079C2.758 9.311 10.297 1.851 19.412 1.573L71 0zm0 11.475l-51.287 1.564c-3.824.116-6.988 3.246-7.422 7.344a296.131 296.131 0 000 62.471c.434 4.1 3.598 7.23 7.422 7.345L71 91.763l51.287-1.564c3.824-.116 6.988-3.246 7.422-7.345a296.078 296.078 0 000-62.47c-.434-4.099-3.598-7.229-7.422-7.345L71 11.475z" fill="url(#paint0_linear_58_42)"/><defs><linearGradient id="paint0_linear_58_42" x1="71" y1="0" x2="71.299" y2="129.33" gradientUnits="userSpaceOnUse"><stop offset=".419" stop-color="#563256"/><stop offset=".8" stop-color="#563256" stop-opacity=".69"/></linearGradient></defs></svg>