<svg width="40" height="66" fill="none" xmlns="http://www.w3.org/2000/svg"><path d="M39.096 44.973V20.831C39.096 9.737 30.35.712 19.603.712 8.854.712.109 9.737.109 20.831v24.142c0 11.093 8.745 20.119 19.494 20.119 10.748 0 19.493-9.027 19.493-20.119zm-35.088 0V20.831c0-8.874 6.996-16.095 15.595-16.095 8.598 0 15.594 7.22 15.594 16.095v24.142c0 8.874-6.996 16.095-15.594 16.095-8.599 0-15.595-7.22-15.595-16.095z" fill="#EED102"/><path d="M24.714 23.217V17.18c0-2.774-2.185-5.03-4.874-5.03-2.688 0-4.873 2.256-4.873 5.03v6.036c0 2.774 2.185 5.03 4.873 5.03 2.689 0 4.874-2.256 4.874-5.03zm-5.848 0V17.18c0-.553.438-1.006.974-1.006.537 0 .975.453.975 1.006v6.036c0 .553-.439 1.006-.975 1.006s-.974-.45-.974-1.006z" fill="#EED102"/></svg>