<svg width="20" height="20" fill="none" xmlns="http://www.w3.org/2000/svg"><g filter="url(#filter0_d_23_420)" clip-path="url(#clip0_23_420)"><path fill-rule="evenodd" clip-rule="evenodd" d="M10 0c5.52 0 10 4.48 10 10s-4.48 10-10 10S0 15.52 0 10 4.48 0 10 0zm0 18c4.42 0 8-3.58 8-8s-3.58-8-8-8-8 3.58-8 8 3.58 8 8 8zm0-3a5 5 0 110-10 5 5 0 010 10z" fill="#563256"/></g><defs><clipPath id="clip0_23_420"><rect width="20" height="20" rx="10" fill="#fff"/></clipPath><filter id="filter0_d_23_420" x="-4" y="0" width="28" height="28" filterUnits="userSpaceOnUse" color-interpolation-filters="sRGB"><feFlood flood-opacity="0" result="BackgroundImageFix"/><feColorMatrix in="SourceAlpha" values="0 0 0 0 0 0 0 0 0 0 0 0 0 0 0 0 0 0 127 0" result="hardAlpha"/><feOffset dy="4"/><feGaussianBlur stdDeviation="2"/><feComposite in2="hardAlpha" operator="out"/><feColorMatrix values="0 0 0 0 0.392157 0 0 0 0 0.360784 0 0 0 0 0.623529 0 0 0 0.3 0"/><feBlend in2="BackgroundImageFix" result="effect1_dropShadow_23_420"/><feBlend in="SourceGraphic" in2="effect1_dropShadow_23_420" result="shape"/></filter></defs></svg>