<svg width="36" height="36" viewBox="0 0 36 36" fill="none" xmlns="http://www.w3.org/2000/svg">
<path d="M18 0.5C8.375 0.5 0.5 8.375 0.5 18C0.5 27.625 8.375 35.5 18 35.5C27.625 35.5 35.5 27.625 35.5 18C35.5 8.375 27.625 0.5 18 0.5ZM21.625 18.875L16.375 24.125C16.125 24.375 15.75 24.5 15.5 24.5C15.25 24.5 14.875 24.375 14.625 24.125C14.125 23.625 14.125 22.875 14.625 22.375L19 18L14.625 13.625C14.125 13.125 14.125 12.375 14.625 11.875C15.125 11.375 15.875 11.375 16.375 11.875L21.625 17.125C22.125 17.625 22.125 18.375 21.625 18.875Z" fill="#645C9F"/>
</svg>
