<svg width="36" height="36" viewBox="0 0 36 36" fill="none" xmlns="http://www.w3.org/2000/svg">
<path d="M18 0.5C8.375 0.5 0.5 8.375 0.5 18C0.5 27.625 8.375 35.5 18 35.5C27.625 35.5 35.5 27.625 35.5 18C35.5 8.375 27.625 0.5 18 0.5ZM21.375 22.375C21.875 22.875 21.875 23.625 21.375 24.125C21.125 24.375 20.75 24.5 20.5 24.5C20.25 24.5 19.875 24.375 19.625 24.125L14.375 18.875C13.875 18.375 13.875 17.625 14.375 17.125L19.625 11.875C20.125 11.375 20.875 11.375 21.375 11.875C21.875 12.375 21.875 13.125 21.375 13.625L17 18L21.375 22.375Z" fill="#645C9F"/>
</svg>
