<svg width="32" height="35" viewBox="0 0 32 35" fill="none" xmlns="http://www.w3.org/2000/svg">
<path d="M10.6691 15.0197H7.783C7.51865 15.0197 7.30469 15.2538 7.30469 15.5429V18.6975C7.30469 18.9866 7.51865 19.2207 7.783 19.2207H10.6691C10.9335 19.2207 11.1474 18.9866 11.1474 18.6975V15.5429C11.1474 15.2541 10.9332 15.0197 10.6691 15.0197ZM10.1908 18.1747H8.26131V16.0664H10.1908V18.1747Z" fill="#BC90BA"/>
<path d="M17.401 15.0197H14.514C14.2496 15.0197 14.0356 15.2538 14.0356 15.5429V18.6975C14.0356 18.9866 14.2496 19.2207 14.514 19.2207H17.401C17.6654 19.2207 17.8794 18.9866 17.8794 18.6975V15.5429C17.8794 15.2541 17.6654 15.0197 17.401 15.0197ZM16.9227 18.1747H14.9923V16.0664H16.9227V18.1747Z" fill="#BC90BA"/>
<path d="M10.6691 22.2086H7.783C7.51865 22.2086 7.30469 22.4429 7.30469 22.7317V25.8884C7.30469 26.1775 7.51865 26.4116 7.783 26.4116H10.6691C10.9335 26.4116 11.1474 26.1775 11.1474 25.8884V22.7317C11.1474 22.4429 10.9332 22.2086 10.6691 22.2086ZM10.1908 25.3653H8.26131V23.2549H10.1908V25.3653Z" fill="#BC90BA"/>
<path d="M17.401 22.2086H14.514C14.2496 22.2086 14.0356 22.4429 14.0356 22.7317V25.8884C14.0356 26.1775 14.2496 26.4116 14.514 26.4116H17.401C17.6654 26.4116 17.8794 26.1775 17.8794 25.8884V22.7317C17.8794 22.4429 17.6654 22.2086 17.401 22.2086ZM16.9227 25.3653H14.9923V23.2549H16.9227V25.3653Z" fill="#BC90BA"/>
<path d="M23.9232 22.2086H21.0384C20.774 22.2086 20.5601 22.4429 20.5601 22.7317V25.8884C20.5601 26.1775 20.774 26.4116 21.0384 26.4116H23.9232C24.1876 26.4116 24.4015 26.1775 24.4015 25.8884V22.7317C24.4015 22.4429 24.1873 22.2086 23.9232 22.2086ZM23.4449 25.3653H21.5167V23.2549H23.4449V25.3653Z" fill="#BC90BA"/>
<path d="M27.4358 5.62635H24.5305V5.01984C24.5305 3.94214 23.7292 3.06534 22.7445 3.06534C21.7592 3.06534 20.9575 3.94214 20.9575 5.01984V5.62635H17.7267V5.01984C17.7267 3.94214 16.9254 3.06534 15.9407 3.06534C14.9547 3.06534 14.1527 3.94214 14.1527 5.01984V5.62635H10.9229V5.01984C10.9229 3.94214 10.1219 3.06534 9.13685 3.06534C8.15089 3.06534 7.34892 3.94214 7.34892 5.01984V5.62635H4.45194C4.1876 5.62635 3.97363 5.86037 3.97363 6.1495V31.2888C3.97363 31.5775 4.1876 31.8119 4.45194 31.8119H27.4364C27.7008 31.8119 27.9147 31.5775 27.9147 31.2888V6.1495C27.9141 5.86037 27.7001 5.62635 27.4358 5.62635ZM21.9138 5.01984C21.9138 4.51866 22.2863 4.11164 22.7442 4.11164C23.2014 4.11164 23.5736 4.51901 23.5736 5.01984V7.69699C23.5736 8.19782 23.2014 8.60518 22.7442 8.60518C22.2863 8.60518 21.9138 8.19782 21.9138 7.69699V5.01984ZM15.9404 4.1113C16.3976 4.1113 16.7697 4.51866 16.7697 5.01949V7.69664C16.7697 8.19747 16.3976 8.60483 15.9404 8.60483C15.4818 8.60483 15.109 8.19747 15.109 7.69664V6.2067C15.111 6.18752 15.1145 6.16903 15.1145 6.14915C15.1145 6.12927 15.111 6.11079 15.109 6.09161V5.01949C15.109 4.51866 15.4821 4.1113 15.9404 4.1113ZM8.30522 5.01984C8.30522 4.51866 8.67831 4.11164 9.13653 4.11164C9.59379 4.11164 9.96592 4.51901 9.96592 5.01984V7.69699C9.96592 8.19782 9.59379 8.60518 9.13653 8.60518C8.67799 8.60518 8.30522 8.19782 8.30522 7.69699V5.01984ZM26.9575 30.7653H4.92962V6.67231H7.34828V7.69664C7.34828 8.77434 8.15057 9.65114 9.13621 9.65114C10.1209 9.65114 10.9222 8.77434 10.9222 7.69664V6.67231H14.1521V7.69664C14.1521 8.77434 14.9544 9.65114 15.94 9.65114C16.9247 9.65114 17.726 8.77434 17.726 7.69664V6.67231H20.9569V7.69664C20.9569 8.77434 21.7585 9.65114 22.7439 9.65114C23.7285 9.65114 24.5299 8.77434 24.5299 7.69664V6.67231H26.9568V30.7653H26.9575Z" fill="#BC90BA"/>
<path d="M24.4521 13.5075L22.0114 16.7978L20.9932 15.7347C20.8022 15.5352 20.4996 15.5429 20.3169 15.7518C20.1345 15.9611 20.1415 16.2921 20.3325 16.4915L21.7257 17.9463C21.815 18.0394 21.9333 18.091 22.0561 18.091C22.0663 18.091 22.0761 18.0907 22.0863 18.09C22.2196 18.0809 22.3434 18.0108 22.4275 17.8974L25.1951 14.167C25.3615 13.9427 25.3299 13.6132 25.1249 13.4311C24.9199 13.2487 24.6185 13.2832 24.4521 13.5075Z" fill="#BC90BA"/>
</svg>
