<svg width="50" height="51" viewBox="0 0 50 51" fill="none" xmlns="http://www.w3.org/2000/svg">
<g clip-path="url(#clip0_10_719)">
<path d="M43.5456 12.5741H37.454C37.454 9.23925 36.1704 6.04098 33.8856 3.68287C31.6008 1.32477 28.5019 0 25.2707 0C22.0395 0 18.9407 1.32477 16.6558 3.68287C14.371 6.04098 13.0875 9.23925 13.0875 12.5741H6.99583C5.38023 12.5741 3.8308 13.2365 2.6884 14.4155C1.546 15.5946 0.904205 17.1937 0.904205 18.8612L0.904205 39.818C0.90743 42.596 1.97812 45.2593 3.88143 47.2237C5.78473 49.1881 8.36524 50.2931 11.0569 50.2964H39.4845C42.1762 50.2931 44.7567 49.1881 46.66 47.2237C48.5633 45.2593 49.634 42.596 49.6372 39.818V18.8612C49.6372 17.1937 48.9954 15.5946 47.853 14.4155C46.7106 13.2365 45.1612 12.5741 43.5456 12.5741ZM25.2707 4.19137C27.4248 4.19137 29.4907 5.07455 31.0139 6.64662C32.5372 8.21869 33.3929 10.3509 33.3929 12.5741H17.1485C17.1485 10.3509 18.0043 8.21869 19.5275 6.64662C21.0507 5.07455 23.1166 4.19137 25.2707 4.19137V4.19137ZM45.5761 39.818C45.5761 41.4855 44.9343 43.0846 43.7919 44.2636C42.6495 45.4427 41.1001 46.1051 39.4845 46.1051H11.0569C9.44132 46.1051 7.89189 45.4427 6.74949 44.2636C5.60708 43.0846 4.96529 41.4855 4.96529 39.818V18.8612C4.96529 18.3054 5.17922 17.7723 5.56002 17.3793C5.94082 16.9863 6.4573 16.7655 6.99583 16.7655H13.0875V20.9569C13.0875 21.5127 13.3014 22.0457 13.6822 22.4387C14.063 22.8317 14.5795 23.0525 15.118 23.0525C15.6565 23.0525 16.173 22.8317 16.5538 22.4387C16.9346 22.0457 17.1485 21.5127 17.1485 20.9569V16.7655H33.3929V20.9569C33.3929 21.5127 33.6068 22.0457 33.9876 22.4387C34.3684 22.8317 34.8849 23.0525 35.4234 23.0525C35.962 23.0525 36.4784 22.8317 36.8592 22.4387C37.24 22.0457 37.454 21.5127 37.454 20.9569V16.7655H43.5456C44.0841 16.7655 44.6006 16.9863 44.9814 17.3793C45.3622 17.7723 45.5761 18.3054 45.5761 18.8612V39.818Z" fill="#EED102"/>
</g>
<defs>
<clipPath id="clip0_10_719">
<rect width="48.733" height="50.2964" fill="white" transform="translate(0.904205)"/>
</clipPath>
</defs>
</svg>
