<svg width="18" height="18" viewBox="0 0 18 18" fill="none" xmlns="http://www.w3.org/2000/svg">
<g clip-path="url(#clip0_23_256)">
<path d="M17.5958 15.608L10.9521 8.96402L17.5597 2.35636C18.0986 1.81721 18.0986 0.943236 17.5597 0.404384C17.0206 -0.134469 16.1469 -0.134469 15.6078 0.404384L9.00011 7.01205L2.39275 0.404384C1.8536 -0.134469 0.979927 -0.134469 0.44078 0.404384C-0.0983674 0.943532 -0.0983674 1.81751 0.44078 2.35636L7.04814 8.96402L0.403872 15.608C-0.135275 16.1472 -0.135275 17.0208 0.403872 17.56C0.673446 17.8296 1.02658 17.9642 1.38001 17.9642C1.73343 17.9642 2.08657 17.8296 2.35614 17.56L9.00011 10.916L15.6438 17.56C15.9134 17.8296 16.2665 17.9642 16.6199 17.9642C16.9733 17.9642 17.3265 17.8296 17.5961 17.56C18.1346 17.0211 18.1346 16.1472 17.5958 15.608Z" fill="#563256"/>
</g>
<defs>
<clipPath id="clip0_23_256">
<rect width="18" height="17.9643" fill="white"/>
</clipPath>
</defs>
</svg>
