<svg width="49" height="48" viewBox="0 0 49 48" fill="none" xmlns="http://www.w3.org/2000/svg">
<path fill-rule="evenodd" clip-rule="evenodd" d="M24.8019 0C11.5471 0 0.801941 10.7452 0.801941 24C0.801941 37.2548 11.5471 48 24.8019 48C38.0567 48 48.8019 37.2548 48.8019 24C48.8019 10.7452 38.0567 0 24.8019 0ZM19.5252 11.2773C20.8905 11.2152 21.3268 11.2 24.8031 11.2H24.7991C28.2765 11.2 28.7111 11.2152 30.0765 11.2773C31.4392 11.3397 32.3698 11.5555 33.1859 11.872C34.0285 12.1987 34.7405 12.636 35.4525 13.348C36.1646 14.0595 36.6019 14.7736 36.9299 15.6155C37.2446 16.4294 37.4606 17.3595 37.5246 18.7222C37.5859 20.0876 37.6019 20.5238 37.6019 24.0001C37.6019 27.4764 37.5859 27.9116 37.5246 29.277C37.4606 30.6391 37.2446 31.5695 36.9299 32.3837C36.6019 33.2253 36.1646 33.9394 35.4525 34.6509C34.7413 35.3629 34.0283 35.8013 33.1867 36.1283C32.3722 36.4448 31.441 36.6605 30.0784 36.7229C28.713 36.7851 28.2781 36.8003 24.8015 36.8003C21.3255 36.8003 20.8895 36.7851 19.5241 36.7229C18.1617 36.6605 17.2313 36.4448 16.4169 36.1283C15.5755 35.8013 14.8614 35.3629 14.1502 34.6509C13.4384 33.9394 13.0011 33.2253 12.6739 32.3834C12.3576 31.5695 12.1419 30.6394 12.0792 29.2767C12.0174 27.9114 12.0019 27.4764 12.0019 24.0001C12.0019 20.5238 12.0179 20.0873 12.079 18.7219C12.1403 17.3598 12.3563 16.4294 12.6736 15.6152C13.0016 14.7736 13.439 14.0595 14.151 13.348C14.8625 12.6363 15.5766 12.1989 16.4185 11.872C17.2324 11.5555 18.1625 11.3397 19.5252 11.2773Z" fill="#D7DAD6"/>
<path fill-rule="evenodd" clip-rule="evenodd" d="M23.6549 13.5078C23.8778 13.5075 24.1177 13.5076 24.3765 13.5077L24.8032 13.5078C28.2208 13.5078 28.6259 13.5201 29.9755 13.5814C31.2235 13.6385 31.9008 13.847 32.352 14.0222C32.9494 14.2542 33.3752 14.5316 33.823 14.9795C34.271 15.4275 34.5483 15.8542 34.7809 16.4514C34.9561 16.9021 35.1649 17.5794 35.2217 18.8273C35.283 20.1766 35.2963 20.5818 35.2963 23.9976C35.2963 27.4135 35.283 27.8187 35.2217 29.1681C35.1646 30.416 34.9561 31.0932 34.7809 31.5439C34.5489 32.1412 34.271 32.5665 33.823 33.0142C33.375 33.4622 32.9496 33.7395 32.352 33.9715C31.9014 34.1475 31.2235 34.3555 29.9755 34.4125C28.6261 34.4739 28.2208 34.4872 24.8032 34.4872C21.3853 34.4872 20.9802 34.4739 19.6308 34.4125C18.3828 34.3549 17.7055 34.1464 17.254 33.9712C16.6567 33.7392 16.23 33.4619 15.782 33.0139C15.334 32.5659 15.0567 32.1404 14.8241 31.5428C14.6489 31.0922 14.4401 30.4149 14.3833 29.167C14.322 27.8178 14.3097 27.4124 14.3097 23.9944C14.3097 20.5765 14.322 20.1734 14.3833 18.8241C14.4404 17.5762 14.6489 16.8989 14.8241 16.4477C15.0561 15.8504 15.334 15.4238 15.782 14.9758C16.23 14.5279 16.6567 14.2505 17.254 14.018C17.7052 13.842 18.3828 13.634 19.6308 13.5766C20.8116 13.5233 21.2693 13.5073 23.6549 13.5046V13.5078ZM31.6358 15.6331C30.7878 15.6331 30.0997 16.3202 30.0997 17.1685C30.0997 18.0164 30.7878 18.7044 31.6358 18.7044C32.4838 18.7044 33.1718 18.0164 33.1718 17.1685C33.1718 16.3205 32.4838 15.6326 31.6358 15.6326V15.6331ZM18.2298 24.0006C18.2298 20.3708 21.1728 17.4278 24.8029 17.4277C28.4331 17.4277 31.3755 20.3707 31.3755 24.0006C31.3755 27.6306 28.4333 30.5723 24.8032 30.5723C21.173 30.5723 18.2298 27.6306 18.2298 24.0006Z" fill="#D7DAD6"/>
<path d="M24.8031 19.7329C27.1594 19.7329 29.0698 21.6431 29.0698 23.9995C29.0698 26.3558 27.1594 28.2662 24.8031 28.2662C22.4466 28.2662 20.5364 26.3558 20.5364 23.9995C20.5364 21.6431 22.4466 19.7329 24.8031 19.7329Z" fill="#D7DAD6"/>
</svg>
