<svg width="49" height="48" viewBox="0 0 49 48" fill="none" xmlns="http://www.w3.org/2000/svg">
<path fill-rule="evenodd" clip-rule="evenodd" d="M0.60376 24C0.60376 37.2548 11.349 48 24.6038 48C37.8586 48 48.6038 37.2548 48.6038 24C48.6038 10.7452 37.8586 0 24.6038 0C11.349 0 0.60376 10.7452 0.60376 24ZM20.2038 35L20.6121 28.8823L20.6118 28.882L31.7407 18.839C32.2291 18.4055 31.6341 18.1941 30.9857 18.5873L17.2511 27.2523L11.3185 25.4007C10.0373 25.0084 10.0281 24.128 11.6061 23.4951L34.7241 14.5809C35.78 14.1015 36.7991 14.8345 36.396 16.4505L32.459 35.0031C32.1841 36.3215 31.3875 36.6368 30.2838 36.0278L24.2865 31.5969L21.4038 34.4C21.3947 34.4088 21.3857 34.4176 21.3767 34.4264C21.0543 34.7403 20.7875 35 20.2038 35Z" fill="#D7DAD6"/>
</svg>
