<svg width="129" height="129" viewBox="0 0 129 129" fill="none" xmlns="http://www.w3.org/2000/svg">
<path d="M64.4744 11.6225C81.7 11.6225 83.722 11.6993 90.5304 12.0065C96.8268 12.2882 100.231 13.3378 102.509 14.2338C105.529 15.4114 107.679 16.7938 109.932 19.0466C112.184 21.2995 113.592 23.4499 114.743 26.4707C115.614 28.7492 116.689 32.154 116.97 38.4517C117.277 45.2614 117.354 47.2838 117.354 64.5128C117.354 81.7418 117.277 83.7642 116.97 90.5739C116.689 96.8716 115.639 100.276 114.743 102.555C113.566 105.576 112.184 107.726 109.932 109.979C107.679 112.232 105.529 113.64 102.509 114.792C100.231 115.662 96.8268 116.737 90.5304 117.019C83.722 117.326 81.7 117.403 64.4744 117.403C47.2488 117.403 45.2268 117.326 38.4185 117.019C32.122 116.737 28.7179 115.688 26.4399 114.792C23.4196 113.614 21.2696 112.232 19.0173 109.979C16.7649 107.726 15.3571 105.576 14.2054 102.555C13.3351 100.276 12.2601 96.8716 11.9786 90.5739C11.6714 83.7642 11.5946 81.7418 11.5946 64.5128C11.5946 47.2838 11.6714 45.2614 11.9786 38.4517C12.2601 32.154 13.3095 28.7492 14.2054 26.4707C15.3827 23.4499 16.7649 21.2995 19.0173 19.0466C21.2696 16.7938 23.4196 15.3858 26.4399 14.2338C28.7179 13.3634 32.122 12.2882 38.4185 12.0065C45.2268 11.6737 47.2488 11.6225 64.4744 11.6225ZM64.4744 0C46.9673 0 44.7661 0.0768009 37.881 0.384005C31.0214 0.691209 26.3375 1.79202 22.2423 3.37924C17.9935 5.01766 14.4101 7.24489 10.8268 10.8289C7.24345 14.413 5.04226 18.0226 3.37857 22.2467C1.79167 26.3427 0.691071 31.0276 0.383929 37.9141C0.0767857 44.775 0 46.9766 0 64.4872C0 81.9978 0.0767857 84.1994 0.383929 91.0859C0.691071 97.9468 1.79167 102.632 3.37857 106.753C5.01667 111.003 7.24345 114.587 10.8268 118.171C14.4101 121.755 18.019 123.957 22.2423 125.621C26.3375 127.208 31.0214 128.309 37.9065 128.616C44.7917 128.923 46.9673 129 64.5 129C82.0327 129 84.2083 128.923 91.0935 128.616C97.953 128.309 102.637 127.208 106.758 125.621C111.007 123.982 114.59 121.755 118.173 118.171C121.757 114.587 123.958 110.977 125.621 106.753C127.208 102.657 128.309 97.9724 128.616 91.0859C128.923 84.1994 129 82.0234 129 64.4872C129 46.951 128.923 44.775 128.616 37.8885C128.309 31.0276 127.208 26.3427 125.621 22.2211C123.983 17.9714 121.757 14.3874 118.173 10.8033C114.59 7.21929 110.981 5.01766 106.758 3.35364C102.663 1.76642 97.9786 0.665608 91.0935 0.358404C84.1827 0.076801 81.9815 0 64.4744 0Z" fill="url(#paint0_linear_17_248)"/>
<path d="M64.4744 31.3601C46.1994 31.3601 31.3542 46.1828 31.3542 64.4871C31.3542 82.7914 46.1994 97.614 64.4744 97.614C82.7493 97.614 97.5946 82.7658 97.5946 64.4871C97.5946 46.2084 82.7493 31.3601 64.4744 31.3601ZM64.4744 85.9914C52.5982 85.9914 42.9744 76.3657 42.9744 64.4871C42.9744 52.6085 52.5982 42.9827 64.4744 42.9827C76.3505 42.9827 85.9743 52.6085 85.9743 64.4871C85.9743 76.3657 76.3505 85.9914 64.4744 85.9914Z" fill="#563256"/>
<path d="M98.9 37.786C103.169 37.786 106.63 34.3246 106.63 30.0547C106.63 25.7847 103.169 22.3233 98.9 22.3233C94.631 22.3233 91.1703 25.7847 91.1703 30.0547C91.1703 34.3246 94.631 37.786 98.9 37.786Z" fill="#563256"/>
<defs>
<linearGradient id="paint0_linear_17_248" x1="63.984" y1="-1.8469e-08" x2="64.5" y2="129" gradientUnits="userSpaceOnUse">
<stop offset="0.376602" stop-color="#563256"/>
<stop offset="1" stop-color="#563256" stop-opacity="0.49"/>
</linearGradient>
</defs>
</svg>
