<svg width="71" height="70" viewBox="0 0 71 70" fill="none" xmlns="http://www.w3.org/2000/svg">
<g clip-path="url(#clip0_24_675)">
<path d="M35.802 39.9828C55.0912 39.9828 70.7283 34.3071 70.7283 27.3057C70.7283 20.3043 55.0912 14.6285 35.802 14.6285C16.5128 14.6285 0.875732 20.3043 0.875732 27.3057C0.875732 34.3071 16.5128 39.9828 35.802 39.9828Z" fill="#FFE740"/>
<path d="M70.7283 27.3057V37.3599C70.7283 44.3542 55.0114 50.0371 35.802 50.0371C16.447 50.0371 0.875732 44.3542 0.875732 37.3599V27.3057C0.875732 34.2999 16.447 39.9828 35.802 39.9828C55.0114 39.9828 70.7283 34.2999 70.7283 27.3057Z" fill="#EED102"/>
<path d="M70.7283 37.2142V47.2684C70.7283 54.2627 55.0114 59.9456 35.802 59.9456C16.447 59.9456 0.875732 54.2627 0.875732 47.2684V37.2142C0.875732 44.2084 16.447 49.8913 35.802 49.8913C55.0114 49.8913 70.7283 44.2084 70.7283 37.2142Z" fill="#E8EAE9"/>
<path d="M70.7283 47.2684V57.3227C70.7283 64.317 55.0114 69.9998 35.802 69.9998C16.447 69.9998 0.875732 64.317 0.875732 57.3227V47.2684C0.875732 54.2627 16.447 59.9456 35.802 59.9456C55.0114 59.9456 70.7283 54.2627 70.7283 47.2684Z" fill="#EED102"/>
<path d="M57.4854 24.3914C55.8847 23.8085 53.4106 23.8085 51.2277 24.2457C50.9367 24.2457 50.5002 24.3914 50.0636 24.3914C49.627 24.3914 49.1904 24.3914 48.7538 24.2457C46.7165 23.8085 44.2425 23.8085 42.4962 24.3914C40.4588 25.12 38.7125 25.8486 38.7125 27.0143C38.7125 29.2 44.097 31.3857 50.0636 31.3857C56.0301 31.3857 60.687 29.3458 60.687 27.1601C60.6869 25.9942 59.5227 24.9742 57.4854 24.3914Z" fill="#EED102"/>
<path d="M49.4814 13.4629C49.0449 13.4629 48.8993 13.1715 48.8993 12.88C48.8993 12.7342 49.4814 3.55426 59.3772 0.0571238C59.6682 -0.0886358 60.1048 0.0571238 60.1048 0.348506C60.2503 0.639889 60.1048 0.931408 59.8138 1.07703C50.7912 4.28278 50.209 12.8799 50.0635 12.8799C50.0636 13.3171 49.7724 13.4629 49.4814 13.4629Z" fill="#D7DAD6"/>
<path d="M57.0488 12.0057C55.4481 10.5485 52.974 10.5485 50.7911 11.4228C50.3546 11.5686 50.0636 11.7142 49.627 11.7142C49.1904 11.7142 48.7538 11.5684 48.3172 11.4228C46.2799 10.4028 43.8059 10.4028 42.0596 11.8599C40.0223 13.6085 38.7125 16.2314 38.7125 19C38.7125 24.3914 43.5149 28.7629 49.4814 28.7629C55.4479 28.7629 60.2503 24.3914 60.2503 19C60.2503 16.2314 58.9406 13.7543 57.0488 12.0057Z" fill="#BC90BA"/>
<path d="M56.4667 26.4314C54.5748 27.8886 52.1009 28.7629 49.4814 28.7629C43.5149 28.7629 38.7125 24.3915 38.7125 19C38.7125 16.8143 39.4401 14.7743 40.7498 13.1714C40.4588 14.0457 40.3133 15.0657 40.3133 16.0856C40.3133 22.2056 45.6978 27.0142 52.2465 27.0142C53.8472 27.0143 55.1569 26.8686 56.4667 26.4314Z" fill="#563256"/>
<path d="M57.6309 16.3771C58.213 17.8343 58.0674 19.2914 57.1943 19.5829C56.3211 19.8743 55.0114 19 54.4292 17.5429C53.8471 16.0859 53.9927 14.6287 54.8658 14.3372C55.7391 14.0457 56.9033 14.9199 57.6309 16.3771Z" fill="white"/>
<path d="M26.1973 27.3057C24.8875 26.8685 22.8502 26.8685 21.2493 27.1599C20.9583 27.1599 20.6672 27.1599 20.2306 27.1599C19.794 27.1599 19.503 27.1599 19.2119 27.0142C17.6111 26.7228 15.5737 26.7228 14.2639 27.1599C12.6632 27.7428 11.2079 28.3256 11.2079 29.1999C11.2079 30.8027 15.5737 32.4056 20.2305 32.4056C25.0328 32.4056 28.671 30.9485 28.671 29.3456C28.8167 28.4714 27.7981 27.8886 26.1973 27.3057Z" fill="#EED102"/>
<path d="M19.7941 18.1257C19.5031 18.1257 19.3575 17.8343 19.3575 17.6886C19.3575 17.5428 19.9397 10.1114 27.7981 7.48852C28.0891 7.34276 28.3803 7.48852 28.3803 7.7799C28.5258 8.07129 28.3803 8.21704 28.0893 8.3628C20.813 10.8399 20.3764 17.8342 20.3764 17.8342C20.2307 17.9799 20.0851 18.1257 19.7941 18.1257Z" fill="#D7DAD6"/>
<path d="M25.7607 16.96C24.4509 15.7944 22.4136 15.7944 20.8127 16.5229C20.5217 16.6687 20.2306 16.6687 19.794 16.6687C19.3574 16.6687 19.0664 16.5229 18.7753 16.5229C17.1745 15.7944 15.1371 15.7944 13.8274 16.96C12.2266 18.4172 11.2079 20.4572 11.2079 22.6429C11.2079 27.0143 14.9915 30.5115 19.7939 30.5115C24.5962 30.5115 28.3799 27.0143 28.3799 22.6429C28.3802 20.3114 27.3616 18.4171 25.7607 16.96Z" fill="#BC90BA"/>
<path d="M25.324 28.4713C23.8687 29.637 21.8314 30.3657 19.6485 30.3657C14.8461 30.3657 11.0625 26.8685 11.0625 22.4971C11.0625 20.7485 11.6447 19.1457 12.8088 17.8343C12.5178 18.5628 12.3722 19.2915 12.3722 20.1658C12.3722 24.9743 16.5924 28.9086 21.977 28.9086C23.2867 29.0542 24.3054 28.9085 25.324 28.4713Z" fill="#563256"/>
<path d="M26.3428 20.6028C26.7794 21.7685 26.6338 22.9343 25.9062 23.2256C25.1786 23.517 24.1599 22.7885 23.7233 21.6228C23.2868 20.4572 23.4323 19.2914 24.1599 19C24.7421 18.7086 25.7607 19.4371 26.3428 20.6028Z" fill="white"/>
</g>
<defs>
<clipPath id="clip0_24_675">
<rect width="69.9097" height="70" fill="white" transform="translate(0.847168)"/>
</clipPath>
</defs>
</svg>
