<svg width="142" height="130" viewBox="0 0 142 130" fill="none" xmlns="http://www.w3.org/2000/svg">
<path fill-rule="evenodd" clip-rule="evenodd" d="M71.0002 0L122.588 1.57266C131.703 1.85055 139.243 9.31127 140.279 19.0794C142.574 40.702 142.574 62.5358 140.279 84.1583C139.243 93.9264 131.703 101.388 122.588 101.665L83.412 102.86V118.53H106.462C109.4 118.53 111.782 121.097 111.782 124.265C111.782 127.432 109.4 130 106.462 130H35.538C32.6002 130 30.2186 127.432 30.2186 124.265C30.2186 121.097 32.6002 118.53 35.538 118.53H58.5884V102.86L19.4123 101.665C10.297 101.388 2.75754 93.9264 1.72091 84.1583C-0.573637 62.5358 -0.573637 40.702 1.72091 19.0794C2.75754 9.31127 10.297 1.85055 19.4123 1.57266L71.0002 0ZM71.0002 11.475L19.713 13.0385C15.8886 13.155 12.7255 16.2851 12.2906 20.3833C10.088 41.1394 10.088 62.0984 12.2906 82.8544C12.7255 86.9532 15.8886 90.0831 19.713 90.1993L71.0002 91.7631L122.287 90.1993C126.111 90.0831 129.275 86.9532 129.709 82.8544C131.912 62.0984 131.912 41.1394 129.709 20.3833C129.275 16.2852 126.111 13.155 122.287 13.0385L71.0002 11.475Z" fill="url(#paint0_linear_58_42)"/>
<defs>
<linearGradient id="paint0_linear_58_42" x1="71" y1="-1.94334e-08" x2="71.2985" y2="129.33" gradientUnits="userSpaceOnUse">
<stop offset="0.419142" stop-color="#563256"/>
<stop offset="0.800486" stop-color="#563256" stop-opacity="0.69"/>
</linearGradient>
</defs>
</svg>
