<svg width="40" height="66" viewBox="0 0 40 66" fill="none" xmlns="http://www.w3.org/2000/svg">
<path d="M39.0958 44.9732V20.8309C39.0958 9.73748 30.3511 0.712288 19.6026 0.712288C8.85403 0.712288 0.109375 9.73748 0.109375 20.8309V44.9732C0.109375 56.0665 8.85403 65.0917 19.6026 65.0917C30.3511 65.0917 39.0958 56.0645 39.0958 44.9732ZM4.00802 44.9732V20.8309C4.00802 11.9566 11.0041 4.736 19.6026 4.736C28.201 4.736 35.1971 11.9566 35.1971 20.8309V44.9732C35.1971 53.8475 28.201 61.068 19.6026 61.068C11.0041 61.068 4.00802 53.8475 4.00802 44.9732Z" fill="#EED102"/>
<path d="M24.7137 23.2169V17.1814C24.7137 14.407 22.5285 12.1517 19.8404 12.1517C17.1523 12.1517 14.9671 14.407 14.9671 17.1814V23.2169C14.9671 25.9913 17.1523 28.2466 19.8404 28.2466C22.5285 28.2466 24.7137 25.9913 24.7137 23.2169ZM18.8657 23.2169V17.1814C18.8657 16.6281 19.3043 16.1754 19.8404 16.1754C20.3765 16.1754 20.8151 16.6281 20.8151 17.1814V23.2169C20.8151 23.7702 20.3765 24.2229 19.8404 24.2229C19.3043 24.2229 18.8657 23.7722 18.8657 23.2169Z" fill="#EED102"/>
</svg>
