<svg width="21" height="21" viewBox="0 0 21 21" fill="none" xmlns="http://www.w3.org/2000/svg">
<path d="M10.5 0.5C5 0.5 0.5 5 0.5 10.5C0.5 16 5 20.5 10.5 20.5C16 20.5 20.5 16 20.5 10.5C20.5 5 16 0.5 10.5 0.5ZM12.5714 11L9.57143 14C9.42857 14.1429 9.21429 14.2143 9.07143 14.2143C8.92857 14.2143 8.71429 14.1429 8.57143 14C8.28571 13.7143 8.28571 13.2857 8.57143 13L11.0714 10.5L8.57143 8C8.28571 7.71429 8.28571 7.28571 8.57143 7C8.85714 6.71429 9.28571 6.71429 9.57143 7L12.5714 10C12.8571 10.2857 12.8571 10.7143 12.5714 11Z" fill="#563256"/>
</svg>
