<svg width="21" height="21" viewBox="0 0 21 21" fill="none" xmlns="http://www.w3.org/2000/svg">
<path d="M10.5 0.5C5 0.5 0.5 5 0.5 10.5C0.5 16 5 20.5 10.5 20.5C16 20.5 20.5 16 20.5 10.5C20.5 5 16 0.5 10.5 0.5ZM12.4286 13C12.7143 13.2857 12.7143 13.7143 12.4286 14C12.2857 14.1429 12.0714 14.2143 11.9286 14.2143C11.7857 14.2143 11.5714 14.1429 11.4286 14L8.42857 11C8.14286 10.7143 8.14286 10.2857 8.42857 10L11.4286 7C11.7143 6.71429 12.1429 6.71429 12.4286 7C12.7143 7.28571 12.7143 7.71429 12.4286 8L9.92857 10.5L12.4286 13Z" fill="#563256"/>
</svg>
