<svg width="21" height="20" viewBox="0 0 21 20" fill="none" xmlns="http://www.w3.org/2000/svg">
<path d="M15.9199 12.3202C15.6599 12.5702 15.5399 12.9392 15.6009 13.2902L16.4899 18.2102C16.5609 18.6302 16.3909 19.0492 16.0399 19.2902C15.6999 19.5402 15.2499 19.5702 14.8699 19.3702L10.4409 17.0602C10.2799 16.9802 10.1099 16.9292 9.94089 16.9292H9.66989C9.56989 16.9392 9.48089 16.9802 9.39989 17.0192L4.96989 19.3402C4.74989 19.4502 4.49989 19.4902 4.25989 19.4502C3.65989 19.3302 3.27089 18.7692 3.36989 18.1792L4.25989 13.2592C4.31989 12.9002 4.19989 12.5402 3.94089 12.2802L0.329892 8.78024C0.0298924 8.48024 -0.0801076 8.04924 0.0608924 7.65024C0.190892 7.25924 0.529892 6.96924 0.949892 6.90024L5.91989 6.17924C6.29989 6.13924 6.62989 5.91024 6.79989 5.57024L8.98989 1.08024C9.03989 0.980244 9.10989 0.889244 9.19089 0.810244L9.27989 0.740244C9.31989 0.689244 9.37989 0.650244 9.44089 0.610244L9.54989 0.570244L9.71989 0.500244H10.1409C10.5209 0.540244 10.8509 0.769244 11.0209 1.09924L13.2399 5.57024C13.3999 5.90024 13.7099 6.12024 14.0699 6.17924L19.0399 6.90024C19.4599 6.96024 19.8109 7.25024 19.9499 7.65024C20.0799 8.04924 19.9699 8.49024 19.6599 8.78024L15.9199 12.3202Z" fill="#EED102"/>
</svg>
